<?xml version="1.0" encoding="UTF-8" standalone="no"?>
<!-- Generator: Adobe Illustrator 20.1.0, SVG Export Plug-In . SVG Version: 6.00 Build 0)  -->

<svg
   xmlns:dc="http://purl.org/dc/elements/1.1/"
   xmlns:cc="http://creativecommons.org/ns#"
   xmlns:rdf="http://www.w3.org/1999/02/22-rdf-syntax-ns#"
   xmlns:svg="http://www.w3.org/2000/svg"
   xmlns="http://www.w3.org/2000/svg"
   xmlns:sodipodi="http://sodipodi.sourceforge.net/DTD/sodipodi-0.dtd"
   xmlns:inkscape="http://www.inkscape.org/namespaces/inkscape"
   version="1.1"
   id="Layer_1"
   x="0px"
   y="0px"
   width="397.95917"
   height="92.223534"
   viewBox="0 0 397.95917 92.223534"
   xml:space="preserve"
   sodipodi:docname="grafana_icon.svg"
   inkscape:export-filename="C:\Users\flexautomacao\go\src\github.com\grafana\grafana\public\img\grafana_icon.png"
   inkscape:export-xdpi="101.922"
   inkscape:export-ydpi="101.922"
   inkscape:version="0.92.3 (2405546, 2018-03-11)"><metadata
   id="metadata17"><rdf:RDF><cc:Work
       rdf:about=""><dc:format>image/svg+xml</dc:format><dc:type
         rdf:resource="http://purl.org/dc/dcmitype/StillImage" /></cc:Work></rdf:RDF></metadata><defs
   id="defs15" /><sodipodi:namedview
   pagecolor="#ffffff"
   bordercolor="#666666"
   borderopacity="1"
   objecttolerance="10"
   gridtolerance="10"
   guidetolerance="10"
   inkscape:pageopacity="0"
   inkscape:pageshadow="2"
   inkscape:window-width="1920"
   inkscape:window-height="1017"
   id="namedview13"
   showgrid="false"
   inkscape:zoom="1.2931507"
   inkscape:cx="188.18172"
   inkscape:cy="-5.5302077"
   inkscape:window-x="-4"
   inkscape:window-y="-4"
   inkscape:window-maximized="1"
   inkscape:current-layer="Layer_1" />
<style
   type="text/css"
   id="style2">
	.st0{fill:url(#SVGID_1_);}
</style>
<g
   id="Layer_1_1_"
   transform="translate(-6.5821258,-122.08484)">
</g>
<linearGradient
   id="SVGID_1_"
   gradientUnits="userSpaceOnUse"
   x1="175.5"
   y1="445.49481"
   x2="175.5"
   y2="114.0346"
   gradientTransform="translate(-412.841,-7.1085205)">
	<stop
   offset="0"
   style="stop-color:#FFF100"
   id="stop5" />
	<stop
   offset="1"
   style="stop-color:#F05A28"
   id="stop7" />
</linearGradient>

<text
   xml:space="preserve"
   style="font-style:normal;font-weight:normal;font-size:40px;line-height:1.25;font-family:sans-serif;letter-spacing:0px;word-spacing:0px;fill:#000000;fill-opacity:1;stroke:none"
   x="79.25473"
   y="150.89188"
   id="text877"><tspan
     sodipodi:role="line"
     id="tspan875"
     x="79.25473"
     y="187.38509" /></text>



<path
   style="opacity:1;fill:#a52942;fill-opacity:1;fill-rule:evenodd;stroke:none;stroke-width:1.06490338;stroke-linejoin:round;stroke-miterlimit:4;stroke-dasharray:none;stroke-opacity:1;paint-order:stroke fill markers"
   d="m 0.45870817,72.545603 c -0.7612292,-0.31316 -0.5063594,-46.43925 0.2615975,-47.34359 0.44578253,-0.52494 1.35114453,-0.67315 3.49511163,-0.57216 l 2.8934854,0.1363 v 19.82714 c 0,18.45402 0.05905,19.88471 0.852637,20.6584 0.766782,0.74755 1.711451,0.81811 9.3815253,0.70077 l 8.528888,-0.13048 v 2.48678 c 0,1.99918 -0.215574,2.68472 -1.099396,3.49618 -1.068069,0.98063 -1.423382,1.00835 -12.469116,0.97273 -6.2533453,-0.0201 -11.58347523,-0.12457 -11.84473283,-0.23207 z"
   id="path956"
   inkscape:connector-curvature="0" /><path
   style="opacity:1;fill:#a52942;fill-opacity:1;fill-rule:evenodd;stroke:none;stroke-width:1.06490338;stroke-linejoin:round;stroke-miterlimit:4;stroke-dasharray:none;stroke-opacity:1;paint-order:stroke fill markers"
   d="m 34.263865,72.504853 c -0.174171,-0.17023 -0.316676,-7.01401 -0.316676,-15.20841 v -14.89891 l 1.206759,-1.27189 c 1.002744,-1.05687 1.605035,-1.27189 3.562603,-1.27189 h 2.355847 v 15.75762 c 0,15.7572 -2.7e-5,15.75763 -1.055722,16.48028 -1.046813,0.71658 -5.141455,1.01067 -5.752811,0.4132 z"
   id="path958"
   inkscape:connector-curvature="0" /><path
   style="opacity:1;fill:#a52942;fill-opacity:1;fill-rule:evenodd;stroke:none;stroke-width:1.06490338;stroke-linejoin:round;stroke-miterlimit:4;stroke-dasharray:none;stroke-opacity:1;paint-order:stroke fill markers"
   d="m 34.897216,31.497543 c -1.388335,-1.35683 -1.306539,-4.6174 0.149369,-5.95411 1.545282,-1.41878 3.436511,-1.29018 5.112325,0.3476 1.722039,1.68295 1.770282,3.23492 0.158741,5.10666 -1.492978,1.73403 -3.927841,1.95857 -5.420435,0.49985 z"
   id="path960"
   inkscape:connector-curvature="0" /><path
   style="opacity:1;fill:#a52942;fill-opacity:1;fill-rule:evenodd;stroke:none;stroke-width:1.06490338;stroke-linejoin:round;stroke-miterlimit:4;stroke-dasharray:none;stroke-opacity:1;paint-order:stroke fill markers"
   d="m 51.364366,72.504853 c -0.174172,-0.17023 -0.316676,-7.56201 -0.316676,-16.42619 v -16.11668 l 1.072046,-0.20028 c 0.589625,-0.11016 1.925601,-0.18674 2.968837,-0.17018 1.566066,0.0249 1.922124,0.20378 2.042082,1.02615 0.178808,1.22582 1.919395,2.86023 2.377532,2.23249 1.393637,-1.90957 6.554479,-4.38912 9.135358,-4.38912 2.097842,0 5.339416,1.58757 6.987686,3.42225 0.83226,0.92637 1.822055,1.68432 2.199546,1.68432 0.377492,0 1.613121,-0.82849 2.745843,-1.84109 2.124677,-1.89937 5.290498,-3.26548 7.567391,-3.26548 1.776831,0 5.192509,1.50708 6.463532,2.85185 2.351923,2.48839 2.516503,3.63573 2.516503,17.5432 0,14.80192 0.19651,14.14367 -4.139726,13.86697 l -2.207325,-0.14084 0.114439,-11.14162 c 0.09473,-9.22275 -0.01595,-11.49911 -0.642645,-13.21743 -1.107753,-3.03733 -2.401043,-4.19133 -4.697245,-4.19133 -2.407387,0 -4.407711,1.31569 -6.121772,4.0265 l -1.306289,2.06592 v 10.31327 c 0,12.39946 0.0078,12.37681 -4.27454,12.37681 h -2.795628 l -0.146273,-12.96557 c -0.139106,-12.33009 -0.195197,-13.02975 -1.144396,-14.27519 -0.84076,-1.10314 -1.394591,-1.33211 -3.512846,-1.45227 -2.466302,-0.13991 -2.556839,-0.0988 -4.702044,2.13816 -3.267837,3.40752 -3.849872,5.83213 -3.849872,16.03762 0,8.12783 -0.01563,8.25355 -1.165942,9.37776 -0.837122,0.81812 -1.685562,1.13949 -3.008422,1.13949 -1.013363,0 -1.984982,-0.13928 -2.159154,-0.30949 z"
   id="path962"
   inkscape:connector-curvature="0" /><path
   style="opacity:1;fill:#a52942;fill-opacity:1;fill-rule:evenodd;stroke:none;stroke-width:1.06490338;stroke-linejoin:round;stroke-miterlimit:4;stroke-dasharray:none;stroke-opacity:1;paint-order:stroke fill markers"
   d="m 112.39738,73.666913 c -4.29731,-0.73936 -6.73386,-3.16227 -7.68556,-7.64252 -0.67757,-3.1898 0.0358,-6.54125 1.83784,-8.63425 1.28981,-1.49807 6.44828,-4.07361 8.15889,-4.07361 1.72392,0 7.31659,-1.94273 8.42251,-2.92574 2.90417,-2.58139 -0.80462,-7.75165 -5.56051,-7.75165 -1.70708,0 -5.26591,1.45793 -6.17658,2.53032 -1.35604,1.59684 -4.29464,0.1341 -4.29464,-2.13777 0,-1.13716 2.43985,-2.67682 5.84629,-3.68928 7.47108,-2.22057 14.16218,0.36812 16.45905,6.36776 0.86269,2.25339 0.97035,3.604 0.97035,12.17325 0,9.9261 0.14948,10.7528 1.94423,10.7528 1.22236,0 1.83951,2.46984 1.09253,4.37226 -0.70538,1.79646 -6.05472,0.29676 -7.50602,-2.10434 -0.90486,-1.49703 -1.7631,-1.6945 -2.67867,-0.61634 -2.01845,2.37688 -7.22059,4.00007 -10.82971,3.37911 z m 8.5817,-6.18889 c 2.37033,-2.00762 3.2177,-3.90673 3.21171,-7.198 -0.007,-3.95875 -0.31263,-4.38155 -2.91068,-4.02929 -4.03728,0.5474 -7.2651,1.69863 -8.7032,3.1041 -1.26496,1.23626 -1.42412,1.7024 -1.42412,4.17086 0,2.26596 0.1981,2.97285 1.07303,3.82873 2.38332,2.33147 6.08477,2.38373 8.75326,0.1236 z"
   id="path964"
   inkscape:connector-curvature="0" /><path
   style="opacity:1;fill:#a52942;fill-opacity:1;fill-rule:evenodd;stroke:none;stroke-width:1.06490338;stroke-linejoin:round;stroke-miterlimit:4;stroke-dasharray:none;stroke-opacity:1;paint-order:stroke fill markers"
   d="m 148.90056,92.010933 c -4.42763,-0.65164 -6.88227,-1.98786 -9.06751,-4.93602 -1.11089,-1.49874 -1.3828,-2.34693 -1.3828,-4.31351 0,-2.12321 0.1971,-2.64054 1.48592,-3.90011 1.25975,-1.23117 1.78392,-1.4309 3.44386,-1.31236 1.47189,0.10514 1.90848,0.31271 1.75875,0.83621 -1.16406,4.06954 0.0111,6.32018 4.09816,7.8487 3.22574,1.20642 5.85772,1.2292 9.62482,0.0834 3.55764,-1.08214 5.23782,-2.75462 5.23866,-5.21464 4.7e-4,-1.35693 -0.33255,-1.97864 -1.6785,-3.13358 -0.92349,-0.79243 -1.83195,-1.44757 -2.0188,-1.45589 -1.09796,-0.0488 -10.62489,-1.41401 -12.21509,-1.75042 -3.34724,-0.70814 -5.93978,-2.30415 -6.72457,-4.13979 -1.05091,-2.45808 -0.47569,-4.60008 1.77534,-6.61102 2.19088,-1.95722 2.2771,-2.5644 0.62882,-4.4282 -2.36369,-2.6727 -2.77704,-3.91649 -2.77704,-8.3562 0,-4.79322 0.4481,-5.90872 3.59541,-8.9505 2.16727,-2.0946 6.5216,-3.81592 9.6529,-3.81592 1.63402,0 6.10988,1.35949 7.72865,2.34747 0.82992,0.50654 1.15836,0.44772 2.2694,-0.40639 1.37621,-1.05794 4.403,-2.06304 5.04499,-1.67527 0.62415,0.37699 1.0201,3.31073 0.55617,4.12089 -0.23601,0.41217 -1.15579,1.10833 -2.04396,1.54704 l -1.61486,0.79765 -0.0204,5.10657 c -0.0202,5.0545 -0.0374,5.13109 -1.68292,7.51197 -2.8268,4.08989 -6.69063,5.80903 -12.71908,5.65914 -1.80666,-0.0449 -2.76801,0.16918 -3.44385,0.76692 -0.94725,0.8378 -1.23007,2.76641 -0.55739,3.8009 0.7086,1.0897 3.88712,1.98458 8.0245,2.25923 7.15166,0.47471 12.58255,3.02271 13.9534,6.5465 0.82694,2.12566 0.52136,6.62432 -0.59888,8.81648 -1.4824,2.90084 -5.30208,5.29334 -9.64633,6.04207 -3.1608,0.54476 -8.1122,0.68777 -10.68782,0.30872 z m 8.37679,-34.62439 c 3.34872,-2.2425 4.51282,-6.97925 2.52459,-10.27258 -1.48698,-2.46304 -3.06086,-3.25479 -6.29677,-3.16763 -4.48178,0.12071 -6.81769,2.62777 -6.67052,7.15925 0.18449,5.68075 6.06093,9.21525 10.4427,6.28096 z"
   id="path966"
   inkscape:connector-curvature="0" /><path
   style="opacity:1;fill:#a52942;fill-opacity:1;fill-rule:evenodd;stroke:none;stroke-width:1.06490338;stroke-linejoin:round;stroke-miterlimit:4;stroke-dasharray:none;stroke-opacity:1;paint-order:stroke fill markers"
   d="m 176.9273,72.466163 c 5e-4,-0.1915 -0.0605,-7.51478 -0.13564,-16.27396 -0.0908,-10.59927 0.028,-16.04169 0.35534,-16.27235 0.67515,-0.47566 3.35985,-0.66104 4.49119,-0.31011 0.51131,0.1586 1.17321,1.00956 1.47086,1.89101 0.6813,2.01752 1.93932,2.10163 3.30938,0.22122 1.11014,-1.52366 4.64122,-3.26093 6.62802,-3.26093 2.30521,0 3.13054,1.02343 3.01505,3.73874 -0.0567,1.33107 -0.18818,2.50344 -0.29235,2.60525 -0.10419,0.10182 -1.15309,-0.0668 -2.3309,-0.37464 -3.40836,-0.8909 -6.33543,0.73503 -8.47557,4.70802 -1.05896,1.96587 -1.14,2.69918 -1.37446,12.4362 -0.20482,8.50604 -0.37594,10.42529 -0.96167,10.78632 -0.84328,0.51977 -5.70059,0.60946 -5.69925,0.10523 z"
   id="path968"
   inkscape:connector-curvature="0" /><path
   style="opacity:1;fill:#a52942;fill-opacity:1;fill-rule:evenodd;stroke:none;stroke-width:1.06490338;stroke-linejoin:round;stroke-miterlimit:4;stroke-dasharray:none;stroke-opacity:1;paint-order:stroke fill markers"
   d="m 205.54487,73.334383 c -1.37222,-0.46329 -2.95299,-1.23987 -3.51283,-1.72573 -1.80753,-1.56867 -2.91312,-4.71931 -2.89058,-8.23738 0.0177,-2.75901 0.21277,-3.48809 1.37188,-5.12683 1.48177,-2.09491 6.11455,-4.66411 9.15338,-5.07617 0.934,-0.12665 3.07999,-0.63446 4.76888,-1.12845 2.65658,-0.77706 3.15588,-1.1022 3.70233,-2.411 0.91366,-2.18832 0.0587,-4.38431 -2.30115,-5.91054 -2.49917,-1.61634 -5.56674,-1.36843 -8.7085,0.7038 -2.55462,1.68496 -3.83523,1.84559 -4.53444,0.56876 -1.4048,-2.56533 0.26974,-4.40005 5.28155,-5.78672 3.39209,-0.93852 5.72925,-0.9391 8.95735,-0.003 3.35423,0.97348 5.40091,2.55785 6.73725,5.21539 1.01423,2.01697 1.10013,2.84623 1.23446,11.91674 0.1489,10.05442 0.47512,12.04739 2.03729,12.44664 0.73248,0.1872 0.91113,0.65383 0.91113,2.37994 0,1.48503 -0.22081,2.22989 -0.7161,2.41563 -1.50802,0.56555 -4.15198,-0.38481 -6.19777,-2.22775 l -2.07844,-1.87237 -2.06247,1.65169 c -1.27764,1.02317 -3.12945,1.9233 -4.86642,2.36544 -3.41795,0.87007 -3.22469,0.87495 -6.2868,-0.15889 z m 7.41267,-4.52201 c 1.81152,-0.35409 4.20457,-2.51964 5.10076,-4.61586 0.81757,-1.91228 0.88159,-6.77296 0.0993,-7.53751 -0.77903,-0.76134 -2.40986,-0.69894 -5.30391,0.20293 -4.36137,1.35915 -5.51762,1.98888 -6.47792,3.52816 -1.17949,1.89064 -1.18135,3.28973 -0.008,5.81677 1.20784,2.6007 2.99626,3.30785 6.58948,2.60551 z"
   id="path970"
   inkscape:connector-curvature="0" /><path
   style="opacity:1;fill:#a52942;fill-opacity:1;fill-rule:evenodd;stroke:none;stroke-width:1.06490338;stroke-linejoin:round;stroke-miterlimit:4;stroke-dasharray:none;stroke-opacity:1;paint-order:stroke fill markers"
   d="m 236.3049,57.842803 c 0.002,-14.10633 0.0562,-15.05873 0.94304,-16.4803 0.86051,-1.37932 1.14564,-1.50875 3.32332,-1.50875 h 2.38205 l 0.0195,1.97299 c 0.0108,1.08514 0.005,8.24014 -0.0121,15.89999 -0.036,15.87074 0.17864,15.08761 -4.13592,15.08761 h -2.52176 z"
   id="path972"
   inkscape:connector-curvature="0" /><path
   style="opacity:1;fill:#a52942;fill-opacity:1;fill-rule:evenodd;stroke:none;stroke-width:1.06490338;stroke-linejoin:round;stroke-miterlimit:4;stroke-dasharray:none;stroke-opacity:1;paint-order:stroke fill markers"
   d="m 236.81261,31.202813 c -2.72761,-3.38889 0.95563,-8.27078 4.51866,-5.98917 1.60102,1.02522 2.14758,2.5844 1.59346,4.5457 -0.77497,2.743 -4.38077,3.59457 -6.11212,1.44347 z"
   id="path974"
   inkscape:connector-curvature="0" /><path
   style="opacity:1;fill:#a52942;fill-opacity:1;fill-rule:evenodd;stroke:none;stroke-width:1.06490338;stroke-linejoin:round;stroke-miterlimit:4;stroke-dasharray:none;stroke-opacity:1;paint-order:stroke fill markers"
   d="m 253.13839,72.306263 c -0.17671,-0.27944 -0.36068,-7.689 -0.40883,-16.46566 l -0.0876,-15.95758 1.98756,-0.2913 c 2.95384,-0.43289 3.69876,-0.14832 4.29221,1.63979 0.2918,0.8792 0.77289,1.67751 1.06908,1.77399 0.29618,0.0965 1.39967,-0.49112 2.45217,-1.30579 2.26408,-1.7525 6.03044,-3.24059 8.18491,-3.23387 2.44678,0.008 5.60745,1.83405 7.22203,4.1733 l 1.44188,2.08905 0.12309,13.23067 c 0.073,7.84475 -0.0617,13.50889 -0.3308,13.91415 -0.31181,0.46951 -1.31694,0.68751 -3.21068,0.69635 l -2.7568,0.0129 0.17636,-10.73627 c 0.15227,-9.27016 0.063,-11.07689 -0.65325,-13.23066 -1.18313,-3.55726 -2.28475,-4.58343 -4.92041,-4.58343 -3.59932,0 -6.15133,2.33644 -7.82307,7.16226 -0.62631,1.80794 -0.79253,4.07625 -0.79253,10.81453 0,8.43408 -0.0127,8.5391 -1.16594,9.6662 -1.2364,1.20833 -4.18897,1.59677 -4.79946,0.63141 z"
   id="path976"
   inkscape:connector-curvature="0" /><path
   style="opacity:1;fill:#a52942;fill-opacity:1;fill-rule:evenodd;stroke:none;stroke-width:1.06490338;stroke-linejoin:round;stroke-miterlimit:4;stroke-dasharray:none;stroke-opacity:1;paint-order:stroke fill markers"
   d="m 335.58102,81.345903 c -2.8361,-0.5271 -8.46451,-2.54389 -10.92531,-3.91477 -4.70051,-2.61862 -6.37719,-3.83986 -9.73347,-7.08957 -11.67418,-11.30346 -15.98629,-27.43851 -10.31908,-38.6119 4.59829,-9.06593 15.65471,-14.747436 28.8403,-14.820023 13.76652,-0.07578 27.2555,5.052283 35.91812,13.654883 7.18452,7.13475 10.64496,14.54855 10.61963,22.75201 -0.0326,10.57975 -6.22173,18.60988 -18.69052,24.25037 -7.33718,3.31912 -8.99394,3.69117 -17.15942,3.85341 -4.04949,0.0805 -7.8971,0.047 -8.55025,-0.0744 z m 2.60581,-7.38675 c 4.04523,-1.19916 7.52222,-3.80765 11.10683,-8.33253 2.35207,-2.96903 2.34969,-2.96531 5.0488,-7.89989 1.77054,-3.23691 4.50952,-9.39332 4.51262,-10.14298 8.7e-4,-0.21673 0.28689,-1.05235 0.63553,-1.85693 0.84689,-1.95436 2.499,-7.30733 3.31702,-10.74753 0.71493,-3.00657 0.31468,-5.33869 -0.91625,-5.33869 -1.57989,0 -4.95558,2.64749 -6.48518,5.08622 -0.56754,0.90484 -1.41276,2.05014 -1.87828,2.54511 -0.46552,0.49497 -0.84639,1.26604 -0.84639,1.71348 0,0.44745 -0.18519,0.92539 -0.41151,1.06209 -0.22634,0.13671 -1.52715,2.38761 -2.89071,5.002 -3.7293,7.1503 -5.74342,9.55 -9.76066,11.6292 -2.66642,1.38003 -9.27002,1.45556 -11.51909,0.13173 -2.07448,-1.22106 -1.96258,-1.82045 0.17676,-0.94686 5.29756,2.16323 13.49975,-1.33672 18.48035,-7.88574 1.26721,-1.66626 1.42921,-2.27245 1.57765,-5.90364 l 0.16543,-4.0467 -2.59181,-2.53298 c -4.90386,-4.79258 -10.56823,-4.5747 -16.73777,0.64382 l -2.1998,1.86071 -1.5136,-1.10045 c -3.44633,-2.50564 -11.86887,-3.86561 -14.87212,-2.4014 -1.80912,0.88203 -3.78767,2.9277 -4.42427,4.57436 -0.838,2.16764 -0.60253,7.45355 0.4742,10.64531 1.12491,3.33455 4.26895,9.54359 6.04793,11.94378 3.75997,5.07302 11.79963,11.11655 16.45527,12.3697 2.81512,0.75774 6.34648,0.72996 9.04905,-0.0711 z"
   id="path978"
   inkscape:connector-curvature="0" /><path
   style="opacity:1;fill:#a52942;fill-opacity:1;fill-rule:evenodd;stroke:none;stroke-width:1.06490338;stroke-linejoin:round;stroke-miterlimit:4;stroke-dasharray:none;stroke-opacity:1;paint-order:stroke fill markers"
   d="m 366.13375,21.191813 c -1.31378,-1.654693 -1.15564,-3.621282 0.29121,-3.621282 1.13603,0 3.0027,2.059808 2.80223,3.092162 -0.19983,1.02901 -2.39803,1.405 -3.09344,0.52912 z"
   id="path980"
   inkscape:connector-curvature="0" /><path
   style="opacity:1;fill:#a52942;fill-opacity:1;fill-rule:evenodd;stroke:none;stroke-width:1.06490338;stroke-linejoin:round;stroke-miterlimit:4;stroke-dasharray:none;stroke-opacity:1;paint-order:stroke fill markers"
   d="m 377.18697,21.248783 c -1.39733,-1.622937 -1.52852,-2.393783 -0.54339,-3.192811 1.12118,-0.909378 2.77104,-0.358782 3.91705,1.307209 2.08142,3.025832 -0.93864,4.713792 -3.37366,1.885602 z"
   id="path982"
   inkscape:connector-curvature="0" /><path
   style="opacity:1;fill:#a52942;fill-opacity:1;fill-rule:evenodd;stroke:none;stroke-width:1.06490338;stroke-linejoin:round;stroke-miterlimit:4;stroke-dasharray:none;stroke-opacity:1;paint-order:stroke fill markers"
   d="m 393.18108,25.354783 c -1.73808,-1.75254 -2.45301,-4.16573 -1.54939,-5.229814 1.50009,-1.766471 5.32861,-0.01958 6.10206,2.784254 1.04648,3.79361 -1.73433,5.28737 -4.55267,2.44556 z"
   id="path984"
   inkscape:connector-curvature="0" /><path
   style="opacity:1;fill:#a52942;fill-opacity:1;fill-rule:evenodd;stroke:none;stroke-width:1.06490338;stroke-linejoin:round;stroke-miterlimit:4;stroke-dasharray:none;stroke-opacity:1;paint-order:stroke fill markers"
   d="m 381.90301,10.530342 c -2.83005,-2.1756042 -3.01023,-5.4941182 -0.29829,-5.4941182 2.61713,0 5.02398,3.432026 3.87644,5.5275652 -0.68243,1.246178 -1.92875,1.234527 -3.57815,-0.03345 z"
   id="path986"
   inkscape:connector-curvature="0" /><path
   style="opacity:1;fill:#a52942;fill-opacity:1;fill-rule:evenodd;stroke:none;stroke-width:1.06490338;stroke-linejoin:round;stroke-miterlimit:4;stroke-dasharray:none;stroke-opacity:1;paint-order:stroke fill markers"
   d="m 365.89126,6.2419718 c -2.2082,-2.03557 -2.75962,-4.197281 -1.40771,-5.51851699 0.88405,-0.863988 1.15892,-0.901069 2.90013,-0.391231 1.49832,0.438718 2.13349,0.96548399 2.87344,2.38299899 1.12124,2.147906 1.20565,3.530127 0.27136,4.443212 -1.12124,1.095782 -2.81813,0.760423 -4.63722,-0.916463 z"
   id="path988"
   inkscape:connector-curvature="0" /><path
   style="opacity:1;fill:#a52942;fill-opacity:1;fill-rule:evenodd;stroke:none;stroke-width:0.26622584;stroke-linejoin:round;stroke-miterlimit:4;stroke-dasharray:none;stroke-opacity:1;paint-order:stroke fill markers"
   d="m 331.7932,58.314603 c -0.35708,-0.0938 -0.80169,-0.24484 -0.98802,-0.33569 -0.18634,-0.0909 -0.66904,-0.19596 -1.07268,-0.23359 -1.25443,-0.11693 -1.50581,-0.17537 -1.50581,-0.35006 0,-0.22338 -0.43559,-0.47668 -0.9802,-0.57003 -0.29615,-0.0508 -0.53029,-0.18806 -0.69742,-0.40899 -0.15447,-0.20418 -0.40644,-0.36097 -0.65266,-0.4061 -0.29704,-0.0545 -0.40105,-0.13383 -0.40105,-0.306 0,-0.14941 -0.12985,-0.28582 -0.36347,-0.38182 -0.1999,-0.0822 -0.46631,-0.31464 -0.59202,-0.51666 -0.12569,-0.20201 -0.30848,-0.3673 -0.40617,-0.3673 -0.0977,0 -0.21005,-0.12637 -0.24972,-0.28081 -0.0397,-0.15445 -0.25444,-0.44296 -0.47728,-0.64114 -0.22284,-0.19817 -0.40516,-0.45411 -0.40516,-0.56873 0,-0.11463 -0.17872,-0.41366 -0.39716,-0.66453 -0.30942,-0.35535 -0.41427,-0.60096 -0.47465,-1.11184 -0.0427,-0.36066 -0.23798,-1.0053 -0.43412,-1.43254 -0.33698,-0.73401 -0.35662,-0.85947 -0.35662,-2.27803 0,-1.45171 0.0123,-1.52505 0.3722,-2.22185 0.25203,-0.48793 0.39118,-0.9518 0.43102,-1.43671 0.0504,-0.61296 0.10598,-0.7502 0.38634,-0.95277 0.22361,-0.16157 0.37202,-0.41795 0.46779,-0.80812 0.10017,-0.40807 0.21946,-0.60674 0.41717,-0.69478 0.15539,-0.0692 0.33742,-0.30252 0.41481,-0.53171 0.0758,-0.22463 0.23762,-0.43934 0.35947,-0.47714 0.12185,-0.0378 0.3305,-0.2492 0.46367,-0.46978 0.13317,-0.22058 0.32271,-0.40105 0.42122,-0.40105 0.0985,0 0.26151,-0.1558 0.36227,-0.34621 0.10075,-0.19042 0.33881,-0.42486 0.52902,-0.52099 0.4064,-0.2054 0.54626,-0.53843 0.36507,-0.86929 -0.16343,-0.29846 -0.0633,-0.30018 0.32,-0.006 l 0.3005,0.231 0.57884,-0.47364 c 0.31837,-0.26049 0.60888,-0.52113 0.64559,-0.57918 0.11913,-0.18839 0.29023,-0.11163 0.29023,0.13022 0,0.12965 -0.0936,0.264 -0.20782,0.29852 -0.41307,0.12475 -0.55986,0.24702 -0.62578,0.52123 -0.0369,0.15354 -0.21635,0.34942 -0.39878,0.43531 -0.18242,0.0859 -0.38618,0.30894 -0.45279,0.4957 -0.0666,0.18674 -0.22219,0.39241 -0.34574,0.45703 -0.23009,0.12034 -0.69982,0.90996 -0.70118,1.17864 -4e-4,0.0824 -0.15506,0.23549 -0.34366,0.34034 -0.25824,0.14356 -0.36326,0.30837 -0.42533,0.66733 -0.0454,0.26219 -0.12922,0.47671 -0.18644,0.47671 -0.19499,0 -0.70635,0.86524 -0.70635,1.19515 0,0.39987 -0.18426,0.77281 -0.50509,1.02237 -0.19971,0.15534 -0.25765,0.3977 -0.34685,1.45073 -0.0742,0.87555 -0.17871,1.39397 -0.34009,1.68623 -0.32419,0.58713 -0.32811,1.86425 -0.007,2.17838 0.16408,0.16036 0.25,0.47158 0.31244,1.13157 0.10049,1.06234 0.21735,1.42478 0.53717,1.66604 0.12786,0.0964 0.3255,0.35759 0.43922,0.58029 0.12294,0.24075 0.30961,0.41926 0.46041,0.44028 0.17071,0.0238 0.27581,0.14364 0.32143,0.36653 0.0507,0.24786 0.16923,0.3639 0.47106,0.46126 0.22749,0.0734 0.46015,0.25203 0.53372,0.40984 0.13032,0.27952 0.7351,0.52391 1.29992,0.52528 0.14696,3.5e-4 0.26719,0.0487 0.26719,0.10721 0,0.0586 0.0331,0.19079 0.0735,0.29372 0.063,0.16041 0.004,0.17623 -0.41565,0.11071 -0.8248,-0.12889 -0.56837,0.30596 0.61768,1.04744 1.23975,0.77506 2.97315,1.11222 5.70043,1.10878 2.82885,-0.003 4.92549,-0.40516 6.49316,-1.24369 1.79146,-0.95824 3.14788,-2.0354 4.40331,-3.49678 1.55477,-1.80982 2.61675,-3.51154 5.15224,-8.25594 0.76754,-1.43623 1.43562,-2.65357 1.48463,-2.70519 0.049,-0.0516 0.0645,0.18338 0.0346,0.52226 -0.0341,0.38471 -0.12418,0.65973 -0.24001,0.7322 -0.4336,0.27129 -0.59524,0.52399 -0.67681,1.05803 -0.0645,0.42266 -0.17537,0.64057 -0.43583,0.85692 -0.27334,0.22709 -0.3642,0.41749 -0.418,0.87601 -0.0568,0.48394 -0.12646,0.61822 -0.40046,0.7719 -0.26125,0.14654 -0.36024,0.32043 -0.4661,0.81876 -0.10132,0.47697 -0.20628,0.6703 -0.42644,0.78546 -0.27559,0.14414 -0.52742,0.70785 -0.52899,1.18414 -3.6e-4,0.11005 -0.15468,0.27795 -0.34293,0.37309 -0.23508,0.11881 -0.36543,0.29236 -0.41625,0.55425 -0.0492,0.2536 -0.18752,0.44437 -0.41299,0.56965 -0.19404,0.10782 -0.37491,0.33113 -0.42303,0.52226 -0.0462,0.18365 -0.26167,0.5167 -0.47875,0.74011 -0.21711,0.22341 -0.43183,0.52671 -0.47718,0.67399 -0.0454,0.14727 -0.2163,0.31751 -0.3799,0.37831 -0.16362,0.0608 -0.3573,0.26542 -0.43041,0.45472 -0.0787,0.2037 -0.26355,0.38869 -0.45294,0.45321 -0.17599,0.0599 -0.3924,0.2571 -0.48088,0.43808 -0.0896,0.1833 -0.27492,0.345 -0.41831,0.36504 -0.14158,0.0198 -0.38771,0.20291 -0.54695,0.40696 -0.19768,0.25328 -0.46418,0.41663 -0.83995,0.51486 -0.30271,0.0791 -0.55039,0.1963 -0.55039,0.26037 0,0.28207 -0.48858,0.58074 -0.95003,0.58074 -0.4557,0 -0.58358,0.0762 -1.02679,0.61223 -0.0909,0.11 -0.5048,0.18838 -1.24691,0.23617 -0.79023,0.0508 -1.40207,0.17279 -2.12018,0.42242 -0.83184,0.28916 -1.18698,0.34982 -2.01881,0.34481 -0.55517,-0.003 -1.30156,-0.0829 -1.65865,-0.1766 z"
   id="path990"
   inkscape:connector-curvature="0" /></svg>